<mxfile host="app.diagrams.net" modified="2021-05-30T13:44:42.920Z" agent="5.0 (Windows NT 10.0; Win64; x64) AppleWebKit/537.36 (KHTML, like Gecko) Chrome/90.0.4430.212 Safari/537.36" etag="eHfB6VrYnvdehewQpwhI" version="14.6.13" type="github">
  <diagram id="Xrt__qwN0PWU03THwhLJ" name="Page-1">
    <mxGraphModel dx="2031" dy="1089" grid="1" gridSize="10" guides="1" tooltips="1" connect="1" arrows="1" fold="1" page="1" pageScale="1" pageWidth="827" pageHeight="1169" math="0" shadow="0">
      <root>
        <mxCell id="0" />
        <mxCell id="1" parent="0" />
        <mxCell id="vrBCTd_uDz507Jjtsnyi-3" value="&lt;b&gt;Game&lt;/b&gt;" style="rounded=0;whiteSpace=wrap;html=1;" parent="1" vertex="1">
          <mxGeometry x="80" y="40" width="240" height="40" as="geometry" />
        </mxCell>
        <mxCell id="vrBCTd_uDz507Jjtsnyi-4" value="- scanner : Scanner&lt;br&gt;- player1 : Player&lt;br&gt;- player2 : Player&lt;br&gt;- firstPlayer : int&lt;br&gt;- opponentType : String" style="rounded=0;whiteSpace=wrap;html=1;align=left;" parent="1" vertex="1">
          <mxGeometry x="80" y="80" width="240" height="90" as="geometry" />
        </mxCell>
        <mxCell id="vrBCTd_uDz507Jjtsnyi-5" value="+ init() : void&lt;br&gt;+ play() : void&lt;br&gt;- setupBoards(player : Player) : void&lt;br&gt;+ getFirstPlayer() : Player&lt;br&gt;- setFirstPlayer() : void&lt;br&gt;- askForOpponentType() : void&lt;br&gt;- askToPlay() : void&lt;br&gt;- askForComputerDifficulty() : void" style="rounded=0;whiteSpace=wrap;html=1;align=left;" parent="1" vertex="1">
          <mxGeometry x="80" y="170" width="240" height="130" as="geometry" />
        </mxCell>
        <mxCell id="vrBCTd_uDz507Jjtsnyi-6" value="&lt;b&gt;&lt;i&gt;Player&lt;/i&gt;&lt;/b&gt;" style="rounded=0;whiteSpace=wrap;html=1;" parent="1" vertex="1">
          <mxGeometry x="520" y="40" width="240" height="40" as="geometry" />
        </mxCell>
        <mxCell id="vrBCTd_uDz507Jjtsnyi-9" value="# scanner : Scanner&lt;br&gt;# playerName : String&lt;br&gt;# position : int&lt;br&gt;# attackBoard : Board&lt;br&gt;# personnalBoard : Board" style="rounded=0;whiteSpace=wrap;html=1;align=left;" parent="1" vertex="1">
          <mxGeometry x="520" y="80" width="240" height="90" as="geometry" />
        </mxCell>
        <mxCell id="vrBCTd_uDz507Jjtsnyi-10" value="+ getPlayerName() : String&lt;br&gt;+ setPosition(position : int) : void&lt;br&gt;- setAttackBoard(board: Board) : void&lt;br&gt;+ setPersonnalBoard(board : Board) : void" style="rounded=0;whiteSpace=wrap;html=1;align=left;" parent="1" vertex="1">
          <mxGeometry x="520" y="170" width="240" height="80" as="geometry" />
        </mxCell>
        <mxCell id="vrBCTd_uDz507Jjtsnyi-13" style="edgeStyle=orthogonalEdgeStyle;rounded=0;orthogonalLoop=1;jettySize=auto;html=1;exitX=0.5;exitY=0;exitDx=0;exitDy=0;entryX=0.456;entryY=1.002;entryDx=0;entryDy=0;strokeWidth=1;strokeColor=#CCCCCC;entryPerimeter=0;" parent="1" source="vrBCTd_uDz507Jjtsnyi-11" target="vrBCTd_uDz507Jjtsnyi-10" edge="1">
          <mxGeometry relative="1" as="geometry" />
        </mxCell>
        <mxCell id="vrBCTd_uDz507Jjtsnyi-46" value="Extends" style="edgeLabel;html=1;align=center;verticalAlign=middle;resizable=0;points=[];" parent="vrBCTd_uDz507Jjtsnyi-13" vertex="1" connectable="0">
          <mxGeometry x="-0.5598" y="1" relative="1" as="geometry">
            <mxPoint x="-17" y="2" as="offset" />
          </mxGeometry>
        </mxCell>
        <mxCell id="vrBCTd_uDz507Jjtsnyi-11" value="&lt;b&gt;PlayerComputer&lt;/b&gt;" style="rounded=0;whiteSpace=wrap;html=1;" parent="1" vertex="1">
          <mxGeometry x="380" y="288" width="240" height="40" as="geometry" />
        </mxCell>
        <mxCell id="vrBCTd_uDz507Jjtsnyi-16" value="- playerId : int&lt;br&gt;- level : String" style="rounded=0;whiteSpace=wrap;html=1;align=left;" parent="1" vertex="1">
          <mxGeometry x="380" y="328" width="240" height="50" as="geometry" />
        </mxCell>
        <mxCell id="vrBCTd_uDz507Jjtsnyi-25" style="edgeStyle=orthogonalEdgeStyle;rounded=0;orthogonalLoop=1;jettySize=auto;html=1;strokeColor=#CCCCCC;strokeWidth=1;entryX=0.55;entryY=1.002;entryDx=0;entryDy=0;entryPerimeter=0;" parent="1" source="vrBCTd_uDz507Jjtsnyi-18" target="vrBCTd_uDz507Jjtsnyi-10" edge="1">
          <mxGeometry relative="1" as="geometry">
            <mxPoint x="652" y="254" as="targetPoint" />
            <Array as="points">
              <mxPoint x="780" y="270" />
              <mxPoint x="652" y="270" />
            </Array>
          </mxGeometry>
        </mxCell>
        <mxCell id="vrBCTd_uDz507Jjtsnyi-47" value="Extends" style="edgeLabel;html=1;align=center;verticalAlign=middle;resizable=0;points=[];" parent="vrBCTd_uDz507Jjtsnyi-25" vertex="1" connectable="0">
          <mxGeometry x="-0.6066" relative="1" as="geometry">
            <mxPoint x="15" y="-1" as="offset" />
          </mxGeometry>
        </mxCell>
        <mxCell id="vrBCTd_uDz507Jjtsnyi-18" value="&lt;b&gt;PlayerHuman&lt;/b&gt;" style="rounded=0;whiteSpace=wrap;html=1;" parent="1" vertex="1">
          <mxGeometry x="660" y="288" width="240" height="40" as="geometry" />
        </mxCell>
        <mxCell id="vrBCTd_uDz507Jjtsnyi-19" value="" style="rounded=0;whiteSpace=wrap;html=1;align=left;" parent="1" vertex="1">
          <mxGeometry x="660" y="328" width="240" height="22" as="geometry" />
        </mxCell>
        <mxCell id="vrBCTd_uDz507Jjtsnyi-20" value="- askForName() : void" style="rounded=0;whiteSpace=wrap;html=1;align=left;" parent="1" vertex="1">
          <mxGeometry x="660" y="350" width="240" height="40" as="geometry" />
        </mxCell>
        <mxCell id="vrBCTd_uDz507Jjtsnyi-27" value="" style="rounded=0;whiteSpace=wrap;html=1;align=left;" parent="1" vertex="1">
          <mxGeometry x="380" y="378" width="240" height="22" as="geometry" />
        </mxCell>
        <mxCell id="vrBCTd_uDz507Jjtsnyi-28" value="&lt;b&gt;&lt;i&gt;Board&lt;/i&gt;&lt;/b&gt;" style="rounded=0;whiteSpace=wrap;html=1;" parent="1" vertex="1">
          <mxGeometry x="960" y="40" width="240" height="40" as="geometry" />
        </mxCell>
        <mxCell id="vrBCTd_uDz507Jjtsnyi-29" value="# scanner : Scanner&lt;br&gt;# board : Cell[][]&lt;br&gt;# player : Player" style="rounded=0;whiteSpace=wrap;html=1;align=left;" parent="1" vertex="1">
          <mxGeometry x="960" y="80" width="240" height="60" as="geometry" />
        </mxCell>
        <mxCell id="vrBCTd_uDz507Jjtsnyi-30" value="# generateEmptyBoard() : Cell[][]&lt;br&gt;+ tirer(x : int, y : int) : String" style="rounded=0;whiteSpace=wrap;html=1;align=left;" parent="1" vertex="1">
          <mxGeometry x="960" y="140" width="240" height="40" as="geometry" />
        </mxCell>
        <mxCell id="vrBCTd_uDz507Jjtsnyi-50" value="&lt;b&gt;ArrayHelpers&lt;/b&gt;" style="rounded=0;whiteSpace=wrap;html=1;" parent="1" vertex="1">
          <mxGeometry x="80" y="340" width="240" height="40" as="geometry" />
        </mxCell>
        <mxCell id="vrBCTd_uDz507Jjtsnyi-51" value="" style="rounded=0;whiteSpace=wrap;html=1;align=left;" parent="1" vertex="1">
          <mxGeometry x="80" y="380" width="240" height="20" as="geometry" />
        </mxCell>
        <mxCell id="vrBCTd_uDz507Jjtsnyi-52" value="+ arrayCharContains(&lt;br&gt;&amp;nbsp; &amp;nbsp; &amp;nbsp; value : char,&lt;br&gt;&amp;nbsp; &amp;nbsp; &amp;nbsp; array : char[]) : boolean&lt;br&gt;+ arrayIntContains(&lt;br&gt;&amp;nbsp; &amp;nbsp; &amp;nbsp; value : int,&lt;br&gt;&amp;nbsp; &amp;nbsp; &amp;nbsp; array : int[]) : boolean&lt;br&gt;+ arrayStringContains(&lt;br&gt;&amp;nbsp; &amp;nbsp; &amp;nbsp; value : String,&lt;br&gt;&amp;nbsp; &amp;nbsp; &amp;nbsp; array : String[]) : boolean" style="rounded=0;whiteSpace=wrap;html=1;align=left;" parent="1" vertex="1">
          <mxGeometry x="80" y="400" width="240" height="130" as="geometry" />
        </mxCell>
        <mxCell id="vrBCTd_uDz507Jjtsnyi-56" value="&lt;b&gt;ConsoleHelper&lt;/b&gt;" style="rounded=0;whiteSpace=wrap;html=1;" parent="1" vertex="1">
          <mxGeometry x="80" y="570" width="240" height="40" as="geometry" />
        </mxCell>
        <mxCell id="vrBCTd_uDz507Jjtsnyi-57" value="" style="rounded=0;whiteSpace=wrap;html=1;align=left;" parent="1" vertex="1">
          <mxGeometry x="80" y="610" width="240" height="20" as="geometry" />
        </mxCell>
        <mxCell id="vrBCTd_uDz507Jjtsnyi-58" value="+ effaceEcran() : void&lt;br&gt;+ sleep(millies : long) : void" style="rounded=0;whiteSpace=wrap;html=1;align=left;" parent="1" vertex="1">
          <mxGeometry x="80" y="630" width="240" height="40" as="geometry" />
        </mxCell>
        <mxCell id="vrBCTd_uDz507Jjtsnyi-71" value="&lt;b&gt;Cell&lt;/b&gt;" style="rounded=0;whiteSpace=wrap;html=1;" parent="1" vertex="1">
          <mxGeometry x="1280" y="40" width="240" height="40" as="geometry" />
        </mxCell>
        <mxCell id="vrBCTd_uDz507Jjtsnyi-72" value="- x : int&lt;br&gt;- y : int&lt;br&gt;- value : int" style="rounded=0;whiteSpace=wrap;html=1;align=left;" parent="1" vertex="1">
          <mxGeometry x="1280" y="80" width="240" height="60" as="geometry" />
        </mxCell>
        <mxCell id="vrBCTd_uDz507Jjtsnyi-73" value="+ addBoat(value : int) : void&lt;br&gt;+ tirer() : String&lt;br&gt;+ getBoatId() : int&lt;br&gt;+ dejaTouchee() : boolean&lt;br&gt;+ dejaTiree() : boolean&lt;br&gt;+ getValue() : int&lt;br&gt;+ getX() : int&lt;br&gt;+ getY() : int" style="rounded=0;whiteSpace=wrap;html=1;align=left;" parent="1" vertex="1">
          <mxGeometry x="1280" y="140" width="240" height="120" as="geometry" />
        </mxCell>
        <mxCell id="vrBCTd_uDz507Jjtsnyi-80" value="&lt;b&gt;Boat&lt;/b&gt;" style="rounded=0;whiteSpace=wrap;html=1;" parent="1" vertex="1">
          <mxGeometry x="1280" y="300" width="240" height="40" as="geometry" />
        </mxCell>
        <mxCell id="vrBCTd_uDz507Jjtsnyi-81" value="- id : int&lt;br&gt;- cells : Cell[]&lt;br&gt;- name : String&lt;br&gt;- size : int&lt;br&gt;- lifePoints : int" style="rounded=0;whiteSpace=wrap;html=1;align=left;" parent="1" vertex="1">
          <mxGeometry x="1280" y="340" width="240" height="80" as="geometry" />
        </mxCell>
        <mxCell id="vrBCTd_uDz507Jjtsnyi-82" value="+ estCoule() : boolean&lt;br&gt;+ getSize() : int&lt;br&gt;+ getName() : String&lt;br&gt;+ getId() : int&lt;br&gt;+ getCellValue(cellPosition : int) : int" style="rounded=0;whiteSpace=wrap;html=1;align=left;" parent="1" vertex="1">
          <mxGeometry x="1280" y="420" width="240" height="80" as="geometry" />
        </mxCell>
      </root>
    </mxGraphModel>
  </diagram>
</mxfile>
